<?xml version="1.0" standalone="no"?>
<!DOCTYPE svg PUBLIC "-//W3C//DTD SVG 20010904//EN"
 "http://www.w3.org/TR/2001/REC-SVG-20010904/DTD/svg10.dtd">
<svg version="1.0" xmlns="http://www.w3.org/2000/svg"
 width="1042.000000pt" height="1042.000000pt" viewBox="0 0 1042.000000 1042.000000"
 preserveAspectRatio="xMidYMid meet">
<metadata>
Created by potrace 1.11, written by Peter Selinger 2001-2013
</metadata>
<g transform="translate(0.000000,1042.000000) scale(0.100000,-0.100000)"
fill="#000000" stroke="none">
<path d="M4862 10319 c-1570 -106 -3014 -937 -3891 -2239 -150 -223 -240 -377
-357 -614 -439 -888 -607 -1889 -484 -2892 178 -1457 991 -2781 2210 -3603
223 -150 377 -240 614 -357 888 -439 1889 -607 2892 -484 1457 178 2781 991
3603 2210 150 223 240 377 357 614 439 888 607 1889 484 2892 -178 1457 -991
2781 -2210 3603 -416 280 -842 488 -1310 639 -596 192 -1274 274 -1908 231z
m2988 -3149 c25 -7 86 -61 223 -197 104 -104 195 -200 203 -215 17 -32 18 -91
3 -121 -16 -31 -3698 -3715 -3731 -3733 -35 -18 -91 -18 -126 0 -15 8 -128
116 -252 240 l-225 226 1890 1891 c1040 1040 1904 1897 1920 1905 37 16 50 17
95 4z m-4285 -2351 l660 -659 -268 -267 -267 -268 -665 665 c-580 580 -665
669 -665 694 0 26 34 64 228 259 125 126 236 233 247 237 11 5 31 7 45 4 16
-3 258 -238 685 -665z"/>
</g>
</svg>
